<svg xmlns="http://www.w3.org/2000/svg" width="788" height="851" xmlns:v="https://vecta.io/nano"><style><![CDATA[.B{stroke:#000}.C{stroke-miterlimit:10}.D{stroke-width:5}.E{stroke-linejoin:round}.F{fill:#fff}]]></style><g class="F"><path d="M470.323 201.265l-62.159-42.224-14.313 76.293-15.223-76.112-62.702 43.493 43.13-64.333-75.387-14.679 74.479-14.859-41.68-63.245 62.702 42.405 14.493-76.837 14.141 76.837 62.157-42.043-41.318 62.521 75.023 15.041-74.846 14.498 41.503 63.244z"/><path stroke-width="6" d="M394.83 698.833C576.166 628.166 575.5 492.5 575.5 492.5V266.167H213.833V482.5s-3.667 68 55.667 134.667c49.879 56.044 125.33 81.666 125.33 81.666z" class="B C"/></g><path d="M510.83 123.167L431 107.833l44.666-67.5L408.83 86 393.664 3.167l-15.33 82.667-67.67-46.334 45.5 68.667L276.333 124l80.833 14.833-46.5 69.333 67.666-47 15.5 82 15-82.167 68.668 47-47-69.167 80.33-15.665zM464.164 195L407 156.167l-13.17 70.167-14-70-57.665 40 39.666-59.167-69.331-13.5L361 110l-38.334-58.167 57.668 39 13.332-70.667 13 70.667 57.166-38.667-38 57.5 69 13.833L426 136.833 464.164 195z"/><g class="B C D E F"><path d="M513.75 192L558 98.5s1.75-4.25 7.25-7l39-19-47 105.25-43.5 14.25z"/><path d="M587.834 109.833s101.666 55 153.332 164.333 41.668 187.666 39.334 217.333-9.666 102.001-74 194.001l-86.666-66.334s61.741-70.808 54-182.333c-6.666-96-42.848-141.707-74.334-178.333-17.688-20.572-35.666-38.667-85.75-66.5l43.5-14.25 30.584-67.917z"/></g><path d="M619.834 619.167L606.25 568.75l32 23.25s-11.582 19.834-18.416 27.167z" class="B C D E"/><path d="M606.25 568.75L536.5 653.5l49.25 5.25 50.75 56.5 42-50.75-58.666-45.333-13.584-50.417z" class="B C D E F"/><path d="M536.5 653.5l23 27.25s19.625-14.5 26.25-22l-49.25-5.25z" class="B C D E"/><g class="F B C D E"><path d="M277.058 193l-45.25-93.5s-1.75-4.25-7.25-7l-39-19 48 105.25 43.5 14.25z"/><path d="M233.558 178.751l-31.584-68.918s-102.666 55-154.333 164.333S5.973 461.833 8.307 491.5s11.666 100.001 74 195.001L170 620s-62.771-71.641-55.026-183.166c6.666-96 42.845-141.707 74.333-178.333 17.688-20.572 37.666-37.667 87.751-65.5l-43.5-14.25z"/></g><path d="M168.974 619.167l9.584-46.417-27 19.25s10.582 19.834 17.416 27.167z" class="B C D E"/><path d="M178.558 572.75s72 72.5 75.75 78.75l-50.25 6.25-51.75 57.5-44-47.75 60.666-47.333 9.584-47.417z" class="B C D E F"/><path d="M254.308 651.5l-23.75 28.75s-14.558-8.75-26.5-22.5l50.25-6.25z" class="B C D E"/><path d="M204.058 657.75s68.771 77.417 191.108 77.417c118.332 0 190.582-76.417 190.582-76.417l73.084 81.083s-73.451 74.012-185.334 97.334c-110.332 23-195.563-7.408-234.666-25-69.833-31.417-108-73.334-108-73.334l73.226-81.083z" class="B C D E F"/><path d="M373 305.958c-13.875-6.313-17.625-6.021-23.188-1.458S347 317.688 348 321.375s3.313 12.938.875 16.75-5.938 3.875-8 3.875-7.045.5-7.045.5c22 16.667 26.729-6.75 31.354-11.5.596-.612 1.375-1.375 4.125-1.688 1.462-.166 4.188-.646 4.188-.646v99.963L214.666 267.833h200.665s-17-.577-24.915 4c-2.981 1.724-6.729 4.861-9.169 8.042-6.713 8.751-8.247 26.083-8.247 26.083zm42 22.959v99.918l-20.625 21.154.063-173.156s0-4.901 2.5-6.651c0 0 10.813 7.667 13.729 13.917s5.169 21.75 5.169 21.75l9.165-3.5s7.919-3.166 13.334 1.667 4.831 8.166 1.331 22.333 3.999 16.584 15.585 16.167c0 0-10.048 8.416-18.916 4.667-8.084-3.417-7.836-16.75-16.584-18.167-1.177-.19-4.751-.099-4.751-.099z"/><path d="M535.916 428.167c6.313-13.875 6.396-17.937 1.834-23.5s-14.396-3.083-18.084-2.083-11.354 3.771-15.166 1.333-3.875-5.938-3.875-8-.125-8.25-.125-8.25c-17.42 22.333 5.165 27.542 9.916 32.167.61.596 1.875 2.051 2.188 4.801.166 1.461.646 4.188.646 4.188l-98.25.012 159.986-162.46v204.281s-.412-16.655-4.986-24.572c-1.726-2.981-4.272-6.232-7.25-8.917-8.5-7.666-26.834-9-26.834-9zm-22.666 42.155h-98.334l-20.541-20.333h169.528s5.431-.239 7.431 1.845c0 0-7.084 11.75-15.084 15.25-6.318 2.765-20.25 4.417-20.25 4.417l3.75 9.582s3.166 7.918-1.666 13.334-7.719 4.691-21.918 1.333c-15.5-3.666-16.666 5-16.25 16.584 0 0-8.331-11.047-4.582-19.917 3.413-8.084 17.814-9.416 17.814-16.345.003-1.188.102-5.75.102-5.75zM253.167 471c-5.667 15.667-5.563 18.771-1 24.333s13.188 2.813 16.875 1.813 10.938-3.392 14.958-1.313c4.833 2.5 4.833 6.73 4.833 8.793s.5 7.041.5 7.041c16.663-22-6.083-27.209-10.833-31.834-.611-.596-1.563-.896-1.875-3.646-.166-1.462-.063-5.063-.063-5.063h96.871L252 594.5c-33-47-37.988-98.5-37.988-98.5v-76.596s1.423 27 6 34.917c1.724 2.979 4.976 6.585 8.041 9.167 9.114 7.679 25.114 7.512 25.114 7.512zm23.021-42.371h97.311l20.939 21.442H225.012s-4.845-.571-6.651-1.5c0 0 4.476-10.154 14.226-15.071 6.955-3.508 21.75-5.333 21.75-5.333L250 419.25s-3.583-8.334 1.25-13.75 9.088-4.332 23.333-1.167c13.5 3 14.833-4.5 15.167-15.833 0 0 8.356 10.251 4.333 19-4.333 9.417-16 7.583-17.667 16.5-.217 1.167-.228 4.629-.228 4.629z"/><path d="M394.375 449.989l-21.011 21.066v164.829s-5.963-.007-8.554-3.196c-.813-1-2.721-4.18-4.194-7.066-3.555-6.973-9.791-15.186-25.74-4.934 0 0 10.313 1.438 12 2.813s4.625 4.938 2.313 14.375-7.188 22.188 7.813 24.874c4.006.718 16-4.875 16-4.875l1.625 8.75c1.533 8.844 3.563 18.438 19.813 28.625l-.065-245.261zM537.75 594.917S501.997 656.5 394.834 698.833v-2.916s19.58-6.666 20.58-37.5l11.5 3.833s4.749 1.917 8.916-.5 7.584-4.166 6.25-14.583-6.08-18.729.42-23.667c3.056-2.321 12.666-2.167 12.666-2.167s-7-6.5-15.25-5.583-11.084 9.751-12.084 11.667-3.605 6.504-6.75 7.333c-1.896.5-5.499.359-6.166-1.808v-162.62L537.75 594.917zM247.457 786.302l-31.688-16.54 27.698-53.068 31.079 16.222-4.384 8.398-21.941-11.451-6.4 12.264 20.978 10.95-4.384 8.399-20.978-10.95-8.146 15.607 22.55 11.769zm97.681 30.613l-34.893-7.769 13.011-58.432 34.219 7.62-2.061 9.248-24.154-5.38-3.007 13.504 23.098 5.144-2.061 9.248-23.096-5.144-3.828 17.185 24.832 5.529zm79.401-55.908l4.729 59.681-11.046.875-4.729-59.681zm39.779 54.123c-5.195 0-9.854-1.591-13.845-4.729-5.495-4.317-9.339-11.29-11.427-20.719-2.075-9.378-1.519-17.317 1.657-23.597 3.229-6.382 8.845-10.498 16.688-12.235 2.291-.507 4.553-.765 6.724-.765l.515.005a30.67 30.67 0 0 1 7.021.969l.895.229 2.566 11.606-2.78-1.335c-2.104-1.011-4.295-1.666-6.513-1.948-2.205-.277-4.368-.188-6.428.267-4.652 1.03-7.661 3.415-9.197 7.292-1.596 4.025-1.589 9.76.022 17.038 1.604 7.254 4.015 12.439 7.162 15.42 3.032 2.871 6.767 3.758 11.412 2.727a18.84 18.84 0 0 0 5.995-2.482c1.876-1.188 3.565-2.7 5.021-4.496l1.959-2.417 2.573 11.634-.712.584a30.54 30.54 0 0 1-5.955 3.841c-2.098 1.023-4.411 1.819-6.884 2.367-2.235.493-4.412.744-6.469.744zm39.736-9.592l-22.497-55.475 32.487-13.174 3.563 8.78-22.937 9.301 5.2 12.819 21.928-8.893 3.563 8.781-21.929 8.892 6.612 16.315 23.574-9.559 3.562 8.78zm93.252-46.276l-35.338-48.323 28.297-20.694 5.594 7.649-19.976 14.609 8.166 11.166 19.1-13.969 5.591 7.649-19.098 13.968 10.389 14.21 20.534-15.015 5.591 7.648zM306.182 745.08l-13.976 37.825-.759-43.27-11.058-4.086-20.747 56.15 9.432 3.486 13.976-37.825.759 43.271 11.058 4.086 20.748-56.151zM192.45 189.288l-7.957-8.025-15.394 15.265-15.263-15.395-7.957 7.888 15.265 15.395-15.429 15.298 7.956 8.026 15.43-15.3 15.264 15.395 7.956-7.888-15.265-15.395zM83.952 258.596l7.837 5.323 13.886-20.443 41.681 28.313 5.595-8.238-49.517-33.637zm-7.701 13.05l-4.749 10.064 11.645 10.042-7.527 15.958-15.188-2.533-4.746 10.059 61.957 8.971 4.93-10.445-46.322-42.116zm8.799 37.563l5.237-11.101 17.29 14.943-22.527-3.842zm-41.877 62.657c1.247 2.546 3.113 4.624 5.545 6.177 2.347 1.496 6.324 2.994 12.159 4.577l35.442 9.612 2.6-11.229-38.916-10.555c-2.587-.701-4.42-1.279-5.449-1.719-1.119-.477-1.661-.909-1.95-1.222-1.035-1.055-1.686-2.291-1.992-3.78-.313-1.543-.232-3.372.243-5.434.474-2.037 1.196-3.686 2.151-4.9.915-1.163 2.019-1.911 3.438-2.307.495-.162 1.268-.187 2.227-.065 1.114.142 3.001.572 5.609 1.281l38.844 10.534 2.606-11.27-35.441-9.612c-5.771-1.564-9.931-2.269-12.684-2.139-2.875.127-5.437.997-7.627 2.596-2.019 1.505-3.723 3.406-5.064 5.653-1.322 2.212-2.342 4.834-3.026 7.797-.69 2.986-.938 5.832-.736 8.459.205 2.669.884 5.205 2.021 7.546zm20.44 225.701l15.077 34.301 8.674-3.812-10.774-24.512 16.118-7.084 10.022 22.803 8.674-3.813-10.023-22.803 12.666-5.566 10.482 23.849 8.674-3.813-14.786-33.638zm635.362 10.319c3.099-5.617 4.109-10.727 3.008-15.187-1.115-4.503-4.354-8.264-9.625-11.17-5.219-2.879-10.132-3.602-14.539-2.144-4.378 1.448-8.163 5.021-11.25 10.617l-8.345 15.126 52.415 28.92 4.979-9.024-20.009-11.039 3.366-6.099zm-27.61-7.278l3.365-6.102c1.457-2.642 3.219-4.234 5.385-4.871 2.149-.63 4.521-.223 7.104 1.203 2.617 1.444 4.189 3.208 4.813 5.396s.226 4.525-1.222 7.146l-3.365 6.102-16.08-8.874zm48.564-53.161a11.95 11.95 0 0 0-1.937 1.08c-.132-2.212-.758-4.248-1.873-6.085-1.771-2.912-4.627-5.08-8.488-6.439-5.414-1.912-10.257-1.737-14.328.503-4.021 2.216-7.123 6.345-9.215 12.271l-5.504 15.609 56.45 19.916 3.438-9.755-22.662-7.996 1.825-5.172c.675-1.914 1.678-3.299 2.982-4.114.958-.604 3.203-1.414 8.444-1.873l16.65-1.376 3.723-10.554-19.447 1.998c-4.83.481-8.121 1.132-10.058 1.987zm-29.116 10.283l2.065-5.854c1.017-2.886 2.485-4.83 4.366-5.783s4.13-.948 6.823.004c2.794.982 4.619 2.382 5.428 4.15.813 1.787.709 4.166-.316 7.071l-2.161 6.126-16.205-5.714zm5.041-51.745l56.07 27.251 1.808-10.563-13.943-6.351 2.802-16.379 15.274-1.426 1.807-10.557-61.941 7.063-1.877 10.962zm37.27-5.087l-1.941 11.352-20.457-9.342 22.398-2.01zm18.157-64.037l-.186 25.436-17.605-.131.173-23.662-9.472-.069-.175 23.662-13.834-.104.183-24.747-9.475-.069-.258 35.056 59.86.442.265-35.744zm-26.835-52.809c-9.969 1.416-17.178 4.551-21.429 9.321-4.314 4.843-5.884 11.652-4.664 20.238l1.753 12.341 59.271-8.417-1.755-12.341c-1.22-8.586-4.614-14.689-10.094-18.141-5.401-3.403-13.147-4.41-23.082-3.001zm-16.564 30.346l-.277-1.954c-.796-5.598.045-9.695 2.5-12.178 2.564-2.596 7.896-4.485 15.847-5.614 2.994-.425 5.697-.641 8.033-.641 3.775 0 6.684.556 8.636 1.653 3.054 1.714 5.001 5.41 5.794 10.985l.276 1.953-40.809 5.796zm41.505-54.128l-58.03 14.728-2.536-9.993 58.03-14.728zm-32.15-57.738c1.916.998 3.582 2.251 4.954 3.726 1.355 1.459 2.396 3.108 3.09 4.901 1.527 3.947 1.09 7.411-1.339 10.592-2.562 3.357-7.385 6.424-14.335 9.114-6.961 2.695-12.627 3.68-16.771 2.927-3.938-.716-6.596-2.982-8.122-6.929-.678-1.748-1.013-3.65-.995-5.656.016-2.026.396-4.095 1.137-6.148l1.112-3.093-11.236 4.35-.124.87c-.316 2.218-.357 4.422-.126 6.552s.776 4.306 1.611 6.463c2.649 6.847 7.385 11.252 14.068 13.091 2.228.612 4.626.922 7.135.922 4.834 0 10.268-1.155 16.15-3.433 8.979-3.476 15.351-8.118 18.937-13.796 3.677-5.825 4.188-12.272 1.521-19.165-.836-2.158-1.897-4.13-3.161-5.863-1.258-1.727-2.772-3.328-4.506-4.758l-.677-.56L714.294 301l2.943 1.532zm3.69-22.473l-5.499-9.197-14.722 4.252-8.527-14.261 10.671-11.021-5.497-9.193-42.438 45.668 5.706 9.54 60.306-15.788zm-51.02 3.777l15.701-16.1 5.91 9.882-21.611 6.218zm10.351-64.476l-18.069 15.842-3.615-4.124c-1.338-1.525-2.053-3.078-2.126-4.616-.054-1.13.337-3.486 2.504-8.281l6.955-15.191-7.379-8.414-7.782 17.934c-1.945 4.455-2.99 7.643-3.191 9.745-.072.749-.074 1.489-.008 2.218-1.992-.968-4.069-1.421-6.225-1.347-3.405.117-6.692 1.544-9.771 4.244-4.326 3.792-6.539 8.077-6.579 12.739-.039 4.593 2.042 9.318 6.186 14.044l10.912 12.445 45.011-39.461-6.823-7.777zm-35.374 13.365c1.959.165 3.979 1.423 6.012 3.738l4.283 4.885-12.922 11.329-4.094-4.667c-2.016-2.298-2.991-4.532-2.901-6.638s1.184-4.053 3.346-5.948c2.057-1.803 4.014-2.717 5.82-2.717a4.98 4.98 0 0 1 .456.018zm-27.9-71.616l-5.805 7.489 20.103 15.582-10.785 13.915-18.701-14.496-5.806 7.488 18.705 14.496-8.475 10.935-19.563-15.161-5.802 7.489 27.709 21.477 36.672-47.315zM399.627 769.108c-4.307-5.174-11.3-8.07-20.79-8.616l-13.598-.783-3.44 59.762 13.596.781c1.002.059 1.993.088 2.943.088 8.052 0 14.342-2.101 18.694-6.241 4.843-4.604 7.59-12.021 8.166-22.054.583-10.079-1.293-17.797-5.571-22.937zm-5.929 22.276c-.456 7.912-2.009 13.316-4.614 16.064-2.54 2.675-7.046 3.843-13.314 3.487l-2.336-.135 2.37-41.146 2.337.134c6.318.363 10.639 2.043 12.842 4.99 2.261 3.029 3.175 8.616 2.715 16.606zm-163.844-78.336c-1.066-4.114-4.031-7.922-8.809-11.318l-14.258-10.135-34.686 48.794 14.257 10.137c5.038 3.579 9.729 5.396 13.938 5.396.336 0 .668-.011.999-.034 4.587-.313 8.559-2.788 11.805-7.354 2.538-3.571 3.76-7.225 3.629-10.854-.075-2.091-.592-4.05-1.541-5.857 1.526.194 3.008.084 4.416-.33 2.771-.813 5.293-2.8 7.498-5.902 2.919-4.112 3.845-8.328 2.752-12.543zm-24.745 28.868c-1.8 2.533-3.684 3.909-5.598 4.091-.153.017-.308.021-.467.021h0c-1.937 0-4.384-1.044-7.282-3.104l-5.825-4.142 10.332-14.535 5.826 4.141c2.972 2.112 4.714 4.268 5.175 6.399.449 2.081-.278 4.48-2.161 7.129zm13.532-22.345c-1.574 2.214-3.215 3.433-4.876 3.624-.169.02-.341.027-.517.027-1.632 0-3.621-.824-5.915-2.456l-5.707-4.058 8.19-11.522 5.707 4.058c2.607 1.854 4.15 3.597 4.586 5.182.407 1.471-.087 3.203-1.468 5.145zm355.058 33.064c-3.934-2.854-6.824-4.556-8.835-5.204-.714-.229-1.438-.391-2.164-.482 1.371-1.738 2.257-3.676 2.646-5.789.612-3.35-.077-6.867-2.058-10.456-2.78-5.037-6.494-8.116-11.035-9.152-4.473-1.017-9.542.004-15.043 3.04l-14.492 7.998L551.639 785l9.057-4.998-11.608-21.04 4.802-2.649c1.778-.981 3.447-1.346 4.963-1.089 1.115.189 3.332 1.076 7.553 4.219l13.354 10.043 9.795-5.408-15.856-11.443zm-18.491-10.05c-.582 1.879-2.242 3.585-4.937 5.074l-5.688 3.139-8.304-15.046 5.436-2.997c2.676-1.48 5.058-1.96 7.105-1.417 2.041.539 3.707 2.023 5.096 4.54 1.432 2.593 1.866 4.85 1.292 6.707zM32.915 466.152l1.39 11.041 15.213 2.229 2.204 17.507-14.176 6.006 1.39 11.036 57.104-25.655-1.441-11.461-61.684-10.703zm27.572 26.985l-1.531-12.178 22.605 3.34-21.074 8.838zm45.663 41.695l-4.738-16.682-57.584 16.36 2.932 10.322 23.117-6.567 1.599 5.628c.592 2.084.596 3.905.013 5.41-.425 1.093-1.769 3.136-5.75 6.647l-12.674 11.07 3.183 11.192 14.622-13.311c3.64-3.297 5.926-5.814 6.986-7.7.37-.655.675-1.334.915-2.034 1.404 1.815 3.104 3.19 5.081 4.107 3.157 1.461 6.779 1.638 10.729.517 5.547-1.577 9.365-4.593 11.352-8.964 1.942-4.282 2.015-9.664.217-15.995zm-9.094 10.227c-.961 1.94-2.766 3.266-5.515 4.047-2.854.812-5.116.693-6.833-.362-1.742-1.075-3.079-3.219-3.976-6.37l-1.891-6.654 16.53-4.696 1.808 6.36c.893 3.127.85 5.711-.123 7.675zM33.852 405.326l-.524 14.764c-.369 10.336 1.82 18.199 6.51 23.368 4.699 5.181 12.186 7.989 22.253 8.349a59.45 59.45 0 0 0 2.091.038c9.083 0 16.079-2.276 20.794-6.771 5.06-4.82 7.812-12.507 8.178-22.848l.527-14.762-59.829-2.138zm49.991 16.392c-.25 6.999-1.869 11.827-4.811 14.352-2.977 2.549-8.558 3.707-16.505 3.418-7.896-.282-13.312-1.831-16.1-4.604-2.757-2.741-4.029-7.666-3.78-14.637l.099-2.703 41.192 1.472-.095 2.702z"/></svg>